<svg width="39" height="38" viewBox="0 0 39 38" fill="none" xmlns="http://www.w3.org/2000/svg">
<g id="Group 11">
<rect id="Rectangle 69" x="0.992188" y="0.194092" width="37.024" height="37.024" rx="10.68" fill="#F6F6F6"/>
<path id="Vector" d="M19.4655 14.6696C17.2544 14.6696 15.4709 16.453 15.4709 18.6641C15.4709 20.8752 17.2544 22.6587 19.4655 22.6587C21.6766 22.6587 23.46 20.8752 23.46 18.6641C23.46 16.453 21.6766 14.6696 19.4655 14.6696ZM19.4655 21.2611C18.0366 21.2611 16.8685 20.0965 16.8685 18.6641C16.8685 17.2318 18.0331 16.0671 19.4655 16.0671C20.8978 16.0671 22.0625 17.2318 22.0625 18.6641C22.0625 20.0965 20.8943 21.2611 19.4655 21.2611ZM24.5551 14.5062C24.5551 15.0242 24.138 15.4379 23.6234 15.4379C23.1054 15.4379 22.6917 15.0207 22.6917 14.5062C22.6917 13.9916 23.1089 13.5744 23.6234 13.5744C24.138 13.5744 24.5551 13.9916 24.5551 14.5062ZM27.2008 15.4518C27.1417 14.2037 26.8566 13.0982 25.9423 12.1873C25.0314 11.2764 23.9259 10.9914 22.6778 10.9288C21.3915 10.8558 17.536 10.8558 16.2496 10.9288C15.005 10.9879 13.8995 11.273 12.9851 12.1838C12.0708 13.0947 11.7892 14.2002 11.7266 15.4483C11.6536 16.7346 11.6536 20.5901 11.7266 21.8765C11.7857 23.1246 12.0708 24.2301 12.9851 25.141C13.8995 26.0518 15.0016 26.3369 16.2496 26.3995C17.536 26.4725 21.3915 26.4725 22.6778 26.3995C23.9259 26.3404 25.0314 26.0553 25.9423 25.141C26.8532 24.2301 27.1382 23.1246 27.2008 21.8765C27.2738 20.5901 27.2738 16.7381 27.2008 15.4518ZM25.539 23.2567C25.2678 23.9381 24.7429 24.463 24.058 24.7377C23.0324 25.1444 20.5988 25.0506 19.4655 25.0506C18.3321 25.0506 15.895 25.141 14.8729 24.7377C14.1915 24.4665 13.6666 23.9416 13.3919 23.2567C12.9851 22.2311 13.079 19.7975 13.079 18.6641C13.079 17.5308 12.9886 15.0937 13.3919 14.0716C13.6631 13.3902 14.188 12.8652 14.8729 12.5906C15.8985 12.1838 18.3321 12.2777 19.4655 12.2777C20.5988 12.2777 23.0359 12.1873 24.058 12.5906C24.7394 12.8617 25.2644 13.3867 25.539 14.0716C25.9458 15.0972 25.8519 17.5308 25.8519 18.6641C25.8519 19.7975 25.9458 22.2346 25.539 23.2567Z" fill="#2A2F2F"/>
</g>
</svg>
