<svg width="39" height="38" viewBox="0 0 39 38" fill="none" xmlns="http://www.w3.org/2000/svg">
<g id="Group 12">
<rect id="Rectangle 71" x="0.984375" y="0.194092" width="37.024" height="37.024" rx="10.68" fill="#F6F6F6"/>
<path id="Vector" d="M28.3472 15.1888C28.3585 15.347 28.3585 15.5051 28.3585 15.6632C28.3585 20.4859 24.6879 26.0428 17.979 26.0428C15.9121 26.0428 13.9921 25.4441 12.377 24.4051C12.6706 24.439 12.9529 24.4503 13.2579 24.4503C14.9633 24.4503 16.5333 23.8743 17.787 22.8916C16.1832 22.8578 14.8391 21.8074 14.376 20.3617C14.602 20.3955 14.8278 20.4181 15.065 20.4181C15.3926 20.4181 15.7201 20.3729 16.025 20.2939C14.3535 19.9551 13.0998 18.4868 13.0998 16.7136V16.6684C13.5854 16.9395 14.1502 17.1089 14.7487 17.1315C13.7661 16.4764 13.1224 15.3583 13.1224 14.0933C13.1224 13.4156 13.303 12.7944 13.6193 12.2523C15.4151 14.466 18.1145 15.9117 21.1414 16.0698C21.0849 15.7987 21.051 15.5164 21.051 15.234C21.051 13.2236 22.6774 11.5859 24.6991 11.5859C25.7495 11.5859 26.6982 12.0264 27.3646 12.738C28.1891 12.5799 28.9797 12.2749 29.6799 11.857C29.4088 12.7041 28.8328 13.4157 28.0761 13.8674C28.8103 13.7884 29.5218 13.585 30.1769 13.3027C29.68 14.0255 29.0588 14.6693 28.3472 15.1888Z" fill="#2A2F2F"/>
</g>
</svg>
